<?xml version="1.0" standalone="no"?>
<!DOCTYPE svg PUBLIC "-//W3C//DTD SVG 20010904//EN"
 "http://www.w3.org/TR/2001/REC-SVG-20010904/DTD/svg10.dtd">
<svg version="1.0" xmlns="http://www.w3.org/2000/svg"
 width="1500.000000pt" height="1500.000000pt" viewBox="0 0 1500.000000 1500.000000"
 preserveAspectRatio="xMidYMid meet">

<g transform="translate(0.000000,1500.000000) scale(0.100000,-0.100000)"
fill="#000000" stroke="none">
<path d="M7995 12290 c-169 -157 -541 -350 -905 -470 -80 -26 -147 -44 -148
-39 -2 5 19 58 46 117 62 133 79 200 62 243 -7 16 -21 34 -31 39 -38 21 -68
10 -154 -56 -128 -97 -248 -175 -382 -246 -297 -158 -533 -253 -1078 -433
-220 -73 -434 -146 -475 -163 -131 -53 -352 -157 -444 -211 -49 -28 -94 -51
-100 -51 -6 0 -17 10 -25 23 -41 66 -159 211 -223 273 -138 135 -309 228 -470
254 -94 15 -250 12 -331 -6 -202 -46 -343 -190 -403 -414 -21 -78 -24 -247 -5
-335 50 -237 144 -410 318 -584 59 -59 102 -109 99 -117 -11 -28 -56 -44 -161
-59 -325 -45 -567 -83 -875 -141 -269 -50 -335 -65 -351 -84 -32 -36 -42 -129
-36 -332 3 -143 9 -207 22 -248 55 -177 182 -310 314 -329 l46 -6 7 -175 c38
-971 121 -1457 314 -1846 l65 -131 -20 -234 c-60 -703 -85 -1871 -56 -2609 2
-63 7 -205 10 -315 3 -110 12 -409 20 -665 8 -256 17 -622 20 -815 7 -485 10
-523 37 -552 19 -20 32 -23 92 -24 1104 -5 9207 -8 9245 -4 69 9 97 35 105
101 30 239 48 1356 35 2199 -5 341 -13 987 -19 1435 -9 729 -18 1070 -35 1270
l-6 65 61 79 c269 351 384 870 433 1961 l12 260 45 6 c150 22 283 176 324 374
17 83 20 399 5 460 -23 91 -19 88 -137 112 -59 12 -210 40 -337 63 -126 22
-266 47 -310 55 -44 8 -143 24 -220 35 -251 36 -312 48 -339 65 -14 10 -26 20
-26 22 0 3 30 51 68 107 83 124 93 143 137 235 170 359 151 669 -54 879 -106
108 -222 157 -403 169 -306 20 -552 -111 -801 -424 -45 -57 -85 -99 -91 -96
-6 4 -50 33 -99 64 -387 256 -845 460 -1257 559 -96 23 -181 44 -188 46 -10 3
-9 10 6 31 30 44 69 124 82 172 16 62 5 99 -36 118 -37 18 -1 26 -439 -92
-208 -56 -547 -117 -563 -101 -2 2 19 44 47 92 64 115 112 256 118 355 5 73 4
79 -20 103 -41 41 -69 34 -142 -34z m-86 -307 c-51 -86 -82 -124 -142 -179
-35 -33 -69 -69 -76 -82 -17 -32 -5 -77 27 -103 26 -21 34 -21 222 -16 242 6
401 34 739 128 57 16 107 26 110 23 3 -3 -22 -32 -56 -64 -66 -62 -80 -90 -64
-132 15 -41 46 -54 169 -72 698 -104 1532 -543 2132 -1123 l25 -24 -75 7 -75
6 -204 -82 -205 -81 -310 12 c-376 14 -1109 7 -1576 -17 -179 -9 -326 -17
-327 -18 -2 -1 -6 -102 -10 -224 -3 -122 -10 -222 -14 -222 -5 0 -46 9 -91 19
-399 93 -877 92 -1276 -2 -73 -18 -104 -22 -107 -14 -2 7 -6 109 -10 227 -3
118 -7 215 -8 216 -5 4 -469 25 -772 35 -217 7 -511 9 -815 4 -261 -4 -488 -7
-503 -6 -16 0 -125 39 -243 87 l-215 86 -82 -7 c-45 -4 -112 -13 -149 -19
l-67 -13 31 36 c51 60 152 164 220 226 76 71 254 205 272 205 7 0 21 9 31 20
27 30 186 122 326 189 176 85 364 158 605 236 681 220 978 340 1302 528 61 36
112 63 112 60 0 -3 -24 -36 -54 -72 -64 -78 -74 -107 -52 -150 23 -44 49 -54
116 -47 72 8 239 48 345 82 236 77 628 253 750 338 64 45 72 45 44 -1z m-4257
-584 c125 -26 286 -130 389 -253 86 -101 175 -235 163 -244 -5 -5 -38 -31 -74
-58 -36 -27 -105 -84 -153 -127 -48 -44 -89 -78 -91 -76 -9 12 -28 138 -32
224 -4 77 -2 113 11 155 26 86 25 111 -7 129 -37 21 -56 9 -88 -54 -21 -42
-25 -66 -28 -170 -2 -66 1 -139 6 -162 5 -24 8 -43 5 -43 -3 0 -18 9 -34 21
-77 54 -282 119 -330 104 -26 -8 -42 -42 -35 -70 6 -25 39 -39 116 -49 75 -11
178 -65 287 -154 l43 -34 -53 -62 c-28 -33 -55 -63 -58 -66 -3 -3 -38 -47 -78
-97 -40 -51 -76 -93 -81 -93 -17 0 -128 90 -186 152 -228 239 -318 584 -214
816 54 117 108 167 218 203 66 21 222 25 304 8z m7868 -100 c125 -45 228 -178
252 -324 30 -178 -63 -442 -243 -691 l-59 -81 -80 32 c-78 31 -87 38 -212 169
-72 75 -129 138 -127 140 10 9 171 55 224 65 33 5 107 13 165 16 58 4 111 12
118 17 22 18 14 66 -13 84 -22 14 -42 15 -133 10 -59 -4 -137 -13 -174 -20
-38 -7 -68 -11 -68 -9 0 14 100 198 132 244 34 48 38 59 29 77 -6 12 -21 26
-32 32 -43 24 -90 -30 -190 -220 -62 -119 -128 -210 -152 -210 -7 0 -63 42
-125 94 -62 51 -128 104 -147 117 -19 13 -35 29 -35 35 0 22 175 227 243 285
84 71 205 133 297 154 95 21 247 14 330 -16z m-7371 -1118 c20 -13 -8 -18
-129 -26 -52 -3 -111 -8 -130 -10 -21 -3 -14 1 20 10 51 14 157 31 205 34 11
0 27 -3 34 -8z m6850 -27 c8 -7 -84 -2 -114 6 -18 5 -2 6 40 3 39 -3 72 -7 74
-9z m-5071 -685 c207 -83 398 -162 424 -175 l46 -24 6 -62 c73 -761 54 -1345
-53 -1628 -57 -151 -199 -357 -356 -516 -183 -185 -263 -234 -460 -283 -176
-43 -224 -46 -840 -46 -625 0 -709 4 -981 50 -251 42 -456 115 -532 188 -69
66 -229 298 -246 357 -5 14 -30 79 -56 145 -27 66 -54 142 -61 170 -9 37 -14
44 -19 30 -8 -24 -17 1 -54 150 -45 179 -60 314 -60 530 0 224 16 365 65 557
58 234 188 534 231 535 7 0 92 12 188 26 489 72 1001 118 1555 140 39 2 240 4
448 5 l378 2 377 -151z m4582 131 c413 -25 907 -76 1370 -143 l155 -22 47 -90
c91 -174 157 -370 199 -588 21 -106 21 -121 10 -292 -34 -514 -118 -924 -237
-1155 -96 -187 -215 -305 -399 -395 -159 -78 -345 -124 -675 -166 -140 -17
-1179 -25 -1339 -9 -176 17 -340 60 -405 105 -340 238 -591 614 -701 1051 -51
204 -59 290 -52 599 8 339 30 612 53 657 30 57 58 89 100 114 23 13 225 99
450 189 l409 166 420 -5 c231 -3 499 -10 595 -16z m-4205 1 l70 -6 5 -57 c3
-32 4 -58 3 -58 -6 0 -308 122 -312 126 -6 6 151 3 234 -5z m2674 5 c-8 -7
-432 -176 -435 -173 -2 2 0 39 4 83 l7 79 65 6 c76 7 365 11 359 5z m-1164
-171 c110 -16 277 -49 337 -67 l38 -11 -7 -151 c-5 -83 -8 -425 -8 -761 1
-608 8 -768 44 -958 4 -26 7 -47 5 -47 -2 0 -34 20 -71 45 -37 25 -82 50 -100
57 -32 12 -33 14 -33 68 -1 136 -104 236 -301 293 -258 75 -534 50 -744 -68
-125 -69 -181 -162 -173 -282 l5 -68 -54 -37 -54 -38 6 48 c4 26 10 70 15 97
27 153 35 343 35 885 0 311 -2 644 -5 740 l-5 175 62 16 c98 27 338 68 453 78
135 12 426 5 555 -14z m-5085 -36 c0 -6 -13 -41 -30 -79 -16 -37 -43 -103 -59
-146 l-30 -79 0 146 -1 146 53 10 c28 6 55 11 60 12 4 0 7 -4 7 -10z m9598
-53 c5 -81 -6 -88 -38 -26 -38 72 -38 82 3 78 31 -3 32 -5 35 -52z m-4259
-2020 c181 -133 287 -367 239 -527 -14 -50 -72 -118 -115 -135 -53 -23 -145
-16 -307 21 -328 75 -488 64 -810 -57 -193 -73 -282 -76 -379 -10 -81 54 -108
148 -82 278 31 149 143 331 252 408 l42 29 48 -43 c178 -156 440 -217 653
-151 96 30 185 87 270 172 l75 77 34 -14 c18 -8 54 -29 80 -48z m562 -756
c115 -118 201 -179 363 -256 165 -78 323 -120 586 -156 132 -18 1131 -18 1320
0 498 48 797 127 1012 269 21 14 40 24 42 22 21 -21 53 -1969 32 -1969 -5 0
-39 14 -75 31 -757 361 -1958 617 -3306 705 -247 16 -250 16 -285 44 -82 64
-221 114 -354 126 -117 10 -263 -24 -406 -96 l-75 -38 -400 -6 c-1675 -26
-3222 -204 -4189 -482 -65 -19 -121 -32 -124 -29 -7 7 15 942 28 1165 13 230
42 654 46 659 2 2 29 -19 61 -46 162 -139 363 -229 638 -287 289 -60 491 -77
1035 -83 724 -9 979 18 1273 134 214 84 433 247 537 397 38 56 32 59 71 -47
28 -77 106 -157 191 -197 71 -33 185 -53 252 -44 l46 7 0 -89 c1 -186 49 -337
137 -426 85 -86 230 -132 393 -122 188 12 287 39 356 97 87 73 150 294 155
539 l2 76 111 4 c95 3 119 7 168 30 74 35 146 107 182 184 l29 62 43 -57 c23
-31 71 -85 105 -121z m-868 -41 l57 -13 0 -46 c0 -89 -22 -273 -41 -348 -33
-128 -69 -162 -191 -177 l-56 -7 5 78 c3 47 -4 166 -16 290 -12 117 -21 220
-21 229 0 16 9 17 103 12 56 -3 128 -11 160 -18z m-359 -151 c21 -182 31 -362
22 -410 l-6 -35 -53 8 c-112 15 -170 59 -208 158 -18 45 -23 84 -27 203 l-4
148 28 11 c38 15 206 68 220 68 6 1 17 -61 28 -151z m643 -1152 c179 -48 309
-176 370 -365 21 -65 29 -284 13 -378 -17 -106 -4 -148 63 -205 29 -24 79 -68
112 -99 78 -72 283 -260 468 -428 81 -73 147 -136 147 -141 0 -4 -21 -15 -47
-25 -27 -10 -75 -31 -107 -47 -33 -15 -64 -28 -69 -28 -5 0 -36 25 -70 55 -44
41 -63 52 -73 44 -9 -7 -24 2 -58 37 -25 27 -43 50 -40 53 3 4 24 -14 45 -38
22 -24 43 -41 46 -37 4 4 -13 27 -37 50 -38 37 -48 42 -64 34 -18 -10 -9 -21
89 -114 60 -57 111 -101 113 -100 7 8 -23 45 -45 57 -13 7 -23 16 -23 21 0 10
17 11 22 1 2 -5 18 -20 36 -35 18 -15 33 -30 33 -34 0 -8 -211 -164 -222 -164
-5 0 -9 -5 -9 -10 0 -15 -83 -139 -93 -139 -5 -1 -146 135 -314 301 -167 167
-311 307 -320 312 -33 18 -90 7 -183 -38 -52 -25 -122 -52 -155 -61 -176 -45
-389 16 -508 144 -91 99 -141 225 -153 392 -6 73 -4 89 7 89 8 0 136 -56 284
-125 148 -69 272 -124 277 -123 11 4 419 671 416 680 -2 4 -118 79 -258 168
-140 88 -255 165 -255 172 0 18 164 97 245 118 90 23 242 26 317 6z m-347
-676 c0 -5 8 -6 17 -3 14 5 13 1 -5 -24 -12 -17 -22 -36 -22 -42 0 -6 -7 -11
-16 -11 -8 0 -12 -4 -9 -10 3 -5 1 -10 -4 -10 -6 0 -11 9 -11 19 0 11 -7 26
-15 35 -9 8 -14 20 -13 27 2 6 -4 14 -12 16 -13 4 -13 3 0 -6 12 -9 9 -10 -12
-7 -15 3 -32 7 -38 11 -5 3 -19 1 -31 -6 -17 -9 -20 -8 -14 3 6 10 5 11 -6 1
-7 -7 -20 -13 -28 -13 -14 0 -14 2 -1 11 13 9 13 10 0 6 -8 -2 -14 -11 -12
-20 1 -8 -2 -18 -7 -21 -5 -3 -7 -15 -4 -26 4 -15 0 -20 -16 -20 -11 0 -21 -4
-21 -10 0 -5 9 -10 21 -10 11 0 18 -4 15 -8 -3 -5 10 -24 29 -42 46 -45 84
-45 130 0 l35 34 -21 -43 c-19 -41 -22 -42 -62 -40 -23 1 -49 8 -57 15 -8 6
-30 15 -47 19 -18 3 -33 11 -33 16 0 6 -4 8 -9 5 -14 -9 -42 5 -34 17 3 5 2 7
-4 4 -13 -8 -84 14 -78 24 3 4 -4 5 -15 2 -12 -3 -20 0 -20 6 0 7 -3 10 -7 8
-5 -3 -35 5 -67 17 l-59 22 87 24 c48 12 108 23 135 24 27 1 47 4 44 9 -2 4
64 7 146 7 91 0 151 -4 151 -10z m-91 -75 c18 -37 5 -76 -32 -93 -38 -18 -78
2 -90 45 -24 81 85 123 122 48z m-569 -25 c-8 -5 -19 -10 -25 -10 -5 0 -3 5 5
10 8 5 20 10 25 10 6 0 3 -5 -5 -10z m-45 -20 c-3 -5 -12 -10 -18 -10 -7 0 -6
4 3 10 19 12 23 12 15 0z m-55 -25 c0 -2 -20 -16 -45 -31 -25 -14 -42 -31 -38
-36 3 -6 1 -8 -4 -5 -12 8 -77 -34 -76 -48 1 -5 7 -11 15 -13 10 -3 10 -2 -1
6 -10 8 -8 13 10 26 29 20 45 21 29 1 -7 -8 -10 -28 -8 -45 3 -16 1 -30 -4
-30 -4 0 -8 -7 -8 -15 0 -8 -4 -15 -10 -15 -5 0 -10 -5 -10 -11 0 -8 4 -8 15
1 8 6 18 10 22 7 4 -2 17 -1 28 3 21 8 65 -7 65 -22 0 -5 -4 -6 -10 -3 -5 3
-10 2 -10 -4 0 -5 5 -11 12 -13 6 -2 8 -10 4 -17 -5 -7 -15 -10 -23 -7 -8 3
-12 2 -8 -3 7 -13 -45 -52 -58 -44 -5 3 -7 2 -4 -4 3 -5 -31 -45 -75 -89 -45
-43 -76 -72 -70 -63 7 9 9 19 6 22 -3 3 -3 11 1 17 6 9 10 9 17 -1 6 -10 7 -6
3 10 -6 19 -4 23 9 18 8 -3 18 -2 20 2 3 5 -5 7 -17 6 -12 0 -29 2 -38 6 -10
5 -16 3 -16 -6 0 -8 7 -11 16 -7 14 5 14 3 3 -11 -8 -9 -12 -22 -9 -29 2 -7
-3 -22 -12 -32 -9 -11 -10 -16 -3 -12 22 13 13 -10 -22 -56 -53 -69 -71 -69
-69 -1 0 7 -4 11 -10 10 -6 -1 -13 6 -15 17 -3 13 0 16 9 11 7 -5 10 -4 6 2
-4 6 0 16 8 23 8 7 15 17 15 23 0 6 -10 1 -23 -11 -22 -21 -54 -31 -43 -14 3
5 -1 9 -9 9 -13 0 -13 -3 0 -17 14 -15 12 -16 -14 -12 -42 6 -79 -23 -92 -70
-6 -23 -7 -52 -3 -67 4 -14 8 -31 10 -38 3 -15 -24 -53 -38 -53 -7 0 -6 6 2
15 10 12 9 15 -7 15 -11 0 -22 -3 -25 -6 -10 -9 4 -44 15 -37 6 3 7 1 3 -6 -6
-9 -11 -9 -22 0 -12 10 -13 9 -8 -4 3 -8 -2 -27 -12 -42 -13 -20 -19 -23 -26
-13 -8 10 -9 9 -5 -4 3 -9 -3 -33 -14 -54 -28 -55 -23 -19 11 85 37 115 119
283 133 274 6 -3 7 -1 3 6 -18 29 199 286 324 383 41 31 189 128 197 128 2 0
3 -2 3 -5z m-34 -90 c-9 -13 -16 -35 -15 -47 1 -23 1 -23 10 2 8 23 8 22 4 -6
-2 -17 1 -36 8 -43 18 -18 -4 -13 -25 6 -22 20 -23 70 -1 95 24 27 38 22 19
-7z m-46 -89 c0 -2 -8 -10 -17 -17 -16 -13 -17 -12 -4 4 13 16 21 21 21 13z
m175 -368 l35 -53 -47 -7 c-105 -16 -256 -85 -417 -192 -102 -68 -241 -210
-230 -234 4 -9 7 -28 7 -41 -1 -19 1 -21 9 -10 7 10 9 8 5 -9 -3 -13 -1 -20 5
-16 6 4 8 -2 3 -17 -5 -20 -4 -21 5 -9 10 12 11 11 7 -8 -3 -12 -1 -20 4 -16
5 3 8 -3 7 -13 -3 -35 2 -54 12 -48 6 3 7 -1 4 -9 -3 -9 -1 -16 6 -16 6 0 8
-4 5 -10 -10 -16 27 -122 38 -108 6 9 7 4 3 -12 -7 -31 4 -77 14 -60 4 7 10
-2 14 -24 4 -20 8 -36 9 -37 1 0 34 -3 73 -6 55 -4 94 1 180 21 113 28 239 68
286 92 33 17 41 18 32 3 -10 -17 71 30 109 63 19 17 8 12 -30 -14 -35 -23 -65
-39 -68 -36 -4 3 11 16 31 29 83 51 182 140 238 212 51 67 58 81 52 108 -14
73 -110 224 -143 226 -48 2 -112 22 -147 46 -21 15 -43 27 -47 27 -5 0 -20 18
-34 40 -40 64 -106 64 -142 1 -11 -18 -38 -37 -78 -55 -89 -39 -182 -102 -253
-173 -53 -52 -67 -61 -82 -53 -28 15 -38 12 -65 -15 -32 -31 -32 -66 1 -104
27 -32 26 -56 -3 -96 -15 -20 -15 -20 -9 2 4 13 -3 46 -19 84 -14 34 -25 69
-25 76 0 25 143 155 240 219 181 119 377 197 438 176 30 -10 147 -95 201 -146
31 -28 32 -29 21 -6 -12 23 -12 24 4 11 10 -8 29 -15 42 -16 35 -1 56 -32 105
-154 60 -151 63 -182 25 -256 -60 -115 -208 -241 -381 -324 -129 -62 -223 -85
-345 -85 -91 0 -115 4 -175 27 -75 30 -102 50 -146 111 -26 35 -27 40 -14 59
23 32 18 88 -12 148 -20 38 -35 55 -53 59 -45 10 -63 128 -35 235 23 85 62
150 133 222 142 142 348 239 514 242 46 1 48 0 83 -51z m-505 2 c30 -30 26
-74 -9 -99 -16 -12 -37 -21 -48 -21 -15 0 -16 2 -3 10 11 7 11 10 2 10 -7 0
-19 15 -27 33 -9 20 -14 25 -15 14 0 -10 5 -28 12 -40 10 -20 10 -21 -5 -8
-22 18 -22 79 0 103 21 24 68 23 93 -2z m480 -117 c0 -5 10 -19 21 -33 l20
-25 -16 34 c-20 40 -1 32 20 -10 9 -16 33 -38 55 -49 22 -11 40 -22 40 -24 0
-2 -23 -4 -50 -5 -152 -3 -330 -93 -475 -240 -80 -80 -105 -121 -105 -169 0
-18 -4 -31 -9 -28 -5 3 -7 16 -5 29 3 15 1 13 -7 -7 -7 -18 -8 -31 -2 -35 6
-3 14 -32 17 -64 4 -32 16 -88 26 -125 10 -37 17 -69 15 -71 -3 -2 -7 2 -9 10
-90 284 -87 271 -72 320 14 46 14 48 -10 70 -19 18 -24 32 -22 58 4 44 27 59
67 44 28 -10 32 -9 56 23 15 19 36 44 48 56 41 39 199 138 249 155 27 10 54
27 60 38 19 36 41 55 65 55 12 0 23 -3 23 -7z m3662 -61 c107 -110 179 -232
234 -394 52 -154 68 -273 65 -489 l-1 -75 -197 -13 c-109 -6 -274 -20 -368
-31 -153 -17 -224 -27 -446 -60 -352 -52 -654 -52 -834 1 -79 23 -167 72 -224
125 -124 114 -169 243 -123 347 98 222 620 446 1217 522 66 8 226 42 355 74
129 33 240 60 246 60 6 1 40 -29 76 -67z m-2634 -85 c-14 -12 -31 -31 -37 -42
-6 -11 -11 -15 -11 -8 0 16 61 85 68 78 4 -3 -6 -16 -20 -28z m-931 -8 c-53
-44 -77 -96 -77 -167 0 -62 24 -113 73 -153 74 -60 200 -33 256 57 25 38 30
42 41 29 11 -13 10 -21 -1 -42 -24 -46 -160 -176 -240 -229 -122 -81 -335
-151 -491 -161 l-86 -6 -22 69 c-30 98 -38 221 -16 277 18 47 127 162 211 223
100 73 255 131 355 133 l35 1 -38 -31z m169 2 c134 -61 135 -254 2 -322 -82
-42 -176 -10 -217 74 -26 53 -26 109 -2 163 44 96 124 127 217 85z m804 10 c0
-5 -7 -12 -16 -15 -24 -9 -28 -7 -14 9 14 17 30 20 30 6z m-3506 -46 c130 -19
272 -35 316 -35 202 0 567 -58 767 -121 217 -68 397 -184 438 -281 60 -145
-56 -354 -250 -450 -198 -99 -404 -116 -1065 -90 -245 10 -383 11 -515 3 -134
-7 -182 -7 -187 2 -28 45 -30 390 -4 517 20 95 64 217 109 300 38 72 127 190
143 190 7 0 119 -16 248 -35z m3522 27 c-2 -4 8 -13 23 -20 15 -7 48 -37 75
-67 40 -47 45 -58 36 -75 -6 -11 -7 -20 -3 -20 4 0 1 -5 -7 -10 -10 -7 -11
-10 -2 -10 7 0 18 11 24 25 10 23 13 24 21 9 8 -13 5 -22 -10 -34 -28 -22 -39
-60 -22 -71 11 -7 11 -9 -2 -9 -9 0 -21 -6 -27 -13 -10 -11 -46 -15 -86 -8 -4
0 -5 8 -2 17 3 8 2 12 -4 9 -18 -11 -10 -26 22 -39 l32 -14 -35 -21 c-62 -39
-172 -5 -209 65 -17 31 -16 92 1 108 9 8 10 8 4 -3 -5 -9 -4 -12 3 -7 6 4 9
13 6 20 -10 27 17 28 41 2 14 -16 30 -23 39 -20 9 3 16 8 16 11 0 3 -7 3 -15
-1 -8 -3 -24 4 -35 17 -21 22 -20 62 2 97 7 11 8 10 3 -6 -4 -16 6 -32 44 -67
28 -26 54 -47 60 -47 5 0 18 -3 28 -6 10 -3 0 4 -21 15 -42 22 -86 59 -84 70
1 3 -1 16 -6 28 -16 47 37 83 74 51 12 -11 12 -10 2 4 -10 13 -10 17 0 21 19
8 20 8 14 -1z m-167 -121 c7 -5 10 -14 7 -20 -8 -13 -46 3 -46 19 0 12 20 13
39 1z m-503 -85 c3 -14 2 -26 -3 -26 -15 0 -33 47 -32 83 l1 32 13 -31 c8 -17
17 -43 21 -58z m469 -47 c11 -17 -1 -21 -15 -4 -8 9 -8 15 -2 15 6 0 14 -5 17
-11z m385 -34 c0 -8 -5 -17 -12 -21 -7 -4 -8 -3 -4 5 4 6 2 19 -5 27 -10 12
-9 13 5 8 9 -3 16 -12 16 -19z m93 -30 c-9 -19 -18 -33 -21 -31 -4 5 26 66 33
66 3 0 -3 -16 -12 -35z m-843 -61 c0 -25 -20 -74 -29 -74 -3 0 -14 12 -24 26
-15 20 -16 28 -7 39 14 16 31 11 26 -8 -1 -7 -1 -9 1 -4 3 4 10 4 16 0 7 -3 4
3 -6 15 -13 14 -17 28 -12 43 7 22 8 22 21 4 8 -10 14 -29 14 -41z m-1230 13
c0 -7 -8 -21 -16 -32 -16 -19 -16 -19 -10 5 6 22 6 23 -5 6 -8 -13 -8 -24 0
-43 15 -33 13 -42 -4 -19 -19 26 -19 56 1 84 15 22 34 22 34 -1z m1484 -9 c8
-14 5 -23 -19 -48 -16 -17 -41 -33 -55 -37 -14 -3 -37 -12 -52 -19 -25 -13
-28 -11 -61 25 -20 22 -38 37 -41 34 -3 -3 20 -33 50 -67 30 -33 69 -90 87
-126 30 -61 32 -71 32 -175 0 -105 -2 -113 -34 -177 -32 -65 -113 -156 -177
-199 -60 -41 -207 -110 -267 -125 -69 -18 -154 -14 -248 12 -59 16 -119 59
-177 125 l-32 36 40 6 c59 8 129 46 151 81 24 39 24 48 0 77 -20 25 -36 26
-156 10 -68 -10 -68 -10 29 -5 108 5 126 -1 126 -46 0 -31 -20 -52 -75 -79
-38 -18 -39 -18 -72 1 -33 20 -85 21 -124 4 -37 -16 -123 97 -143 185 l-6 27
63 -20 c52 -17 80 -19 172 -15 131 6 233 38 382 117 75 40 98 48 109 39 8 -6
14 -19 14 -28 0 -10 6 -26 14 -37 14 -18 16 -18 32 -2 14 14 15 20 4 32 -7 9
-18 16 -25 16 -7 0 -20 11 -29 25 -9 14 -12 25 -7 25 22 0 164 148 213 220 48
73 58 82 113 105 71 29 151 31 169 3z m-1560 -23 c5 -22 4 -26 -4 -15 -5 8
-10 24 -10 34 0 26 6 18 14 -19z m2116 16 c-5 -11 -15 -23 -21 -27 -6 -3 -3 5
6 20 20 30 30 35 15 7z m-315 -1 c3 -5 -3 -10 -15 -10 -12 0 -18 5 -15 10 3 6
10 10 15 10 5 0 12 -4 15 -10z m465 4 c0 -17 -64 -213 -80 -244 l-18 -35 168
-174 c174 -181 171 -179 195 -122 9 20 12 21 23 9 9 -12 6 -25 -16 -69 -25
-51 -33 -57 -127 -106 -55 -29 -106 -50 -113 -48 -7 3 -11 1 -8 -3 2 -4 -29
-26 -69 -49 l-74 -41 -18 22 c-49 55 -103 135 -101 147 2 7 -3 13 -11 14 -8 0
-16 6 -19 14 -3 9 0 11 9 6 8 -5 11 -5 7 0 -4 4 -3 15 2 25 6 12 5 17 -5 17
-7 0 -11 -6 -8 -13 2 -6 0 -15 -6 -18 -6 -4 -23 13 -38 36 -15 24 -38 54 -51
68 -12 14 -20 31 -17 37 2 7 -1 12 -7 10 -7 -1 -12 4 -13 11 0 6 -4 12 -8 11
-5 0 -15 8 -22 18 -11 15 -11 20 3 31 30 24 287 159 295 155 4 -2 2 -14 -4
-26 -9 -20 -9 -20 4 -5 13 17 20 11 92 -65 224 -236 277 -288 282 -283 4 3
-41 54 -98 113 -58 60 -142 147 -187 195 l-82 87 19 43 c10 24 32 87 50 141
18 53 37 97 42 97 5 0 9 -3 9 -6z m-2143 -59 c21 -57 38 -133 31 -141 -13 -12
-67 56 -78 97 -23 85 17 122 47 44z m1933 18 c11 3 18 1 14 -4 -10 -17 -51 -9
-70 13 l-19 21 28 -18 c15 -9 36 -15 47 -12z m276 -25 c22 -24 47 -52 55 -63
13 -18 13 -19 -3 -6 -12 9 -18 10 -18 2 0 -6 7 -14 15 -17 8 -4 15 -15 15 -25
0 -21 -15 -25 -26 -8 -4 7 -17 1 -35 -17 l-29 -27 -22 29 c-13 16 -22 32 -20
36 1 5 -2 7 -7 6 -5 -2 -11 -1 -12 2 -5 7 33 130 41 130 3 0 24 -19 46 -42z
m-1066 -22 c0 -24 -14 -26 -36 -5 -19 18 -21 25 -12 42 11 21 11 21 29 -2 11
-13 19 -29 19 -35z m-1091 -36 c-1 -23 -2 -22 -9 5 -4 17 -11 39 -14 50 -5 13
-2 12 8 -5 8 -14 15 -36 15 -50z m-149 25 c0 -5 -5 -3 -10 5 -5 8 -10 20 -10
25 0 6 5 3 10 -5 5 -8 10 -19 10 -25z m1205 -5 c17 -19 17 -21 -9 -55 -31 -41
-50 -45 -44 -10 3 13 1 23 -5 22 -5 -1 -12 4 -14 11 -8 22 27 12 37 -10 5 -13
9 -17 9 -9 1 8 -6 22 -15 32 -17 19 -12 39 10 39 7 0 21 -9 31 -20z m-1208
-52 c-3 -8 -6 -5 -6 6 -1 11 2 17 5 13 3 -3 4 -12 1 -19z m1141 -31 c4 -34
-11 -52 -91 -114 -70 -54 -233 -143 -264 -143 -39 0 -53 11 -53 42 0 24 6 31
33 40 71 25 206 102 267 153 73 60 103 67 108 22z m312 11 c0 -9 3 -8 10 2 14
22 49 -13 43 -43 -4 -17 2 -26 22 -35 14 -7 32 -12 40 -12 7 0 12 -8 10 -17
-1 -10 0 -12 2 -5 11 30 30 6 56 -71 37 -112 36 -138 -9 -172 -33 -25 -35 -30
-29 -65 6 -33 3 -41 -17 -53 -13 -8 -44 -18 -70 -21 -68 -10 -89 -40 -87 -121
2 -70 -3 -82 -36 -95 -14 -5 -40 -39 -66 -84 -34 -60 -50 -78 -75 -86 -35 -12
-44 -26 -44 -71 0 -18 -6 -32 -17 -36 -22 -9 -132 11 -213 38 -65 21 -250 107
-250 116 0 2 6 11 14 18 14 15 10 69 -5 59 -5 -3 -7 -17 -3 -32 l5 -27 -15 25
c-17 28 -21 60 -7 60 5 0 22 -5 37 -10 15 -6 63 -16 106 -21 58 -8 98 -21 154
-50 53 -28 87 -39 117 -39 80 1 98 41 47 105 l-30 38 87 57 c79 51 183 147
209 191 5 9 32 28 60 42 77 39 122 101 112 154 -4 21 -64 31 -81 14 -20 -20
-24 -12 -30 55 -4 45 -17 88 -40 135 -22 46 -29 69 -20 69 7 0 13 -6 13 -12z
m340 -14 c106 -14 189 -30 284 -55 27 -7 35 -14 28 -21 -6 -6 -80 -47 -164
-92 -128 -69 -152 -85 -151 -104 0 -12 1 -33 2 -46 1 -13 56 -99 127 -196
l126 -172 -29 -30 c-33 -35 -167 -125 -238 -161 -131 -65 -320 -107 -481 -107
l-84 0 0 36 c0 45 15 74 39 74 22 0 37 17 85 97 20 34 46 65 56 68 31 10 51
58 49 120 -3 70 16 92 82 101 64 9 93 36 86 80 -5 29 -1 37 31 62 45 37 46 67
6 188 -28 83 -29 85 -69 95 -54 15 -69 27 -53 46 10 12 9 18 -7 29 -16 12 -8
13 71 9 49 -3 141 -12 204 -21z m478 -65 c-1 -16 -4 -29 -8 -29 -3 0 -21 15
-39 34 -29 30 -31 37 -21 56 l12 22 28 -27 c19 -18 28 -37 28 -56z m105 -1 c3
-29 9 -61 13 -72 5 -14 3 -17 -7 -14 -8 3 -14 17 -14 31 1 14 -3 23 -7 21 -13
-8 -9 -36 8 -55 14 -16 14 -21 -6 -59 -12 -23 -19 -44 -16 -47 3 -4 12 8 19
25 l13 31 36 -33 c19 -18 48 -51 62 -73 25 -37 26 -43 14 -73 l-13 -32 -118
126 c-111 117 -117 127 -105 148 10 20 13 21 16 6 2 -10 8 -18 13 -18 12 0 12
17 -1 25 -5 3 -10 13 -10 21 0 9 5 12 11 8 8 -5 8 -1 0 13 -14 26 7 57 32 47
22 -8 22 -32 0 -58 -18 -21 -18 -21 5 -2 26 23 28 43 5 68 -15 17 -15 18 14
18 29 0 30 -2 36 -52z m-2330 -108 c30 -58 53 -90 65 -90 6 0 12 -4 12 -10 0
-5 9 -10 20 -10 11 0 20 -5 20 -11 0 -5 5 -7 10 -4 6 3 10 2 10 -4 0 -9 25
-21 43 -21 4 1 15 -6 23 -15 9 -8 22 -15 30 -15 12 0 18 -11 16 -31 -1 -4 8
-15 18 -24 11 -10 20 -29 20 -42 0 -15 4 -22 11 -17 6 3 3 -6 -7 -22 -11 -15
-13 -25 -6 -20 7 4 15 0 19 -11 4 -10 14 -24 22 -31 12 -10 13 -15 4 -18 -7
-3 -13 -11 -13 -17 0 -8 3 -8 12 1 8 8 16 8 32 -1 12 -6 24 -11 28 -12 3 0 10
-4 15 -9 5 -6 2 -6 -7 -1 -8 5 -12 5 -8 1 3 -4 9 -6 12 -4 3 2 35 -26 70 -61
55 -55 63 -67 53 -80 -11 -14 -10 -14 5 -2 16 12 22 9 52 -17 19 -17 32 -34
28 -38 -4 -4 -2 -4 5 0 7 4 35 -9 64 -29 28 -19 56 -35 61 -35 5 0 6 -5 2 -12
-4 -6 -3 -8 4 -5 15 10 43 -3 35 -16 -4 -6 -1 -7 6 -3 7 5 25 2 42 -4 27 -11
34 -21 30 -43 -1 -5 3 -6 9 -2 6 3 7 11 4 17 -5 8 -1 9 12 4 43 -18 209 -56
240 -56 19 0 34 -3 34 -8 0 -4 60 -4 133 0 263 14 483 98 678 259 l46 38 13
-23 c7 -15 24 -26 41 -28 16 -3 27 -2 24 0 -8 8 55 43 65 37 9 -6 80 20 80 29
0 3 -16 -2 -35 -10 -19 -7 -38 -14 -42 -14 -8 0 24 19 150 89 l78 43 -23 -34
c-85 -124 -206 -250 -332 -344 -56 -43 -82 -51 -80 -26 1 7 2 26 3 43 0 17 5
28 11 24 13 -8 13 8 -1 22 -8 8 -5 15 11 26 12 8 17 18 12 21 -5 3 -15 0 -21
-8 -10 -12 -19 -13 -50 -7 -2 1 3 9 10 18 12 15 12 16 -1 8 -8 -5 -32 -10 -53
-11 -20 -1 -46 -9 -56 -18 -9 -9 -21 -13 -26 -9 -4 5 -5 2 -1 -5 4 -7 1 -26
-8 -42 -8 -17 -10 -30 -5 -30 6 0 7 -5 4 -10 -4 -6 -11 -7 -17 -4 -7 5 -8 2
-3 -6 6 -9 4 -12 -7 -8 -9 4 -15 0 -15 -8 0 -9 6 -13 14 -10 8 3 33 -1 56 -9
55 -19 96 -19 118 1 10 9 19 11 23 5 11 -18 -137 -94 -274 -141 -219 -74 -498
-88 -715 -34 -120 30 -136 35 -131 42 2 4 -8 7 -22 8 -33 1 -183 74 -176 86 3
4 -1 5 -8 3 -17 -7 -174 98 -171 114 2 5 -3 8 -10 5 -11 -4 -71 51 -72 66 0 3
-4 11 -9 19 -5 8 -4 17 5 23 12 8 11 9 -1 5 -8 -2 -14 -12 -14 -21 1 -9 -1
-16 -5 -16 -15 0 -122 130 -116 140 4 6 11 7 17 4 6 -4 8 -2 4 4 -3 6 -15 9
-26 7 -21 -4 -45 19 -35 35 4 6 1 9 -6 8 -6 -2 -14 3 -17 11 -3 9 0 11 8 6 9
-5 11 -4 6 4 -4 6 -11 9 -15 6 -17 -10 -102 143 -154 275 -43 110 -74 233 -68
276 l4 39 19 -60 c10 -33 24 -71 31 -85z m2202 51 c-9 -34 -11 -36 -29 -18 -9
9 -13 22 -10 30 3 8 1 18 -5 22 -7 4 -8 -1 -4 -12 5 -16 4 -16 -10 -3 -10 9
-14 24 -11 37 l6 22 35 -26 c28 -22 33 -31 28 -52z m164 -73 c11 -30 11 -31
-8 -14 -11 10 -17 24 -14 32 7 20 10 18 22 -18z m-2051 -53 c2 -27 0 -36 -10
-32 -7 2 -12 12 -11 22 1 10 -6 25 -14 33 -14 14 -15 12 -9 -19 7 -32 6 -33
-9 -15 -8 11 -15 32 -15 47 0 28 0 28 33 14 27 -11 33 -19 35 -50z m355 36
c-3 -11 4 -27 18 -40 13 -11 18 -21 12 -21 -6 0 -18 -3 -26 -6 -10 -4 -21 5
-32 23 -9 15 -13 19 -10 8 4 -11 7 -24 8 -29 1 -6 -18 -14 -42 -20 -38 -8 -46
-7 -57 9 -7 10 -11 22 -7 28 3 6 1 7 -5 3 -9 -5 -9 -13 -2 -26 14 -27 13 -30
-14 -30 -28 0 -56 33 -56 67 0 18 6 23 25 23 17 0 25 -6 26 -17 1 -17 2 -17 6
0 2 9 8 17 13 17 5 0 15 3 24 6 12 4 16 0 17 -17 2 -23 2 -23 6 -2 4 23 35 39
53 28 5 -3 10 -1 10 4 0 6 9 11 19 11 14 0 18 -5 14 -19z m377 -1 c0 -5 -2
-10 -4 -10 -3 0 -8 5 -11 10 -3 6 -1 10 4 10 6 0 11 -4 11 -10z m-679 -10 c5
0 9 -13 9 -29 0 -17 4 -32 8 -35 4 -2 6 11 4 30 -4 32 -2 34 26 34 25 0 31 -5
34 -27 3 -16 9 -36 13 -47 7 -17 4 -18 -46 -11 -76 10 -89 19 -89 61 0 29 3
35 16 30 9 -3 20 -6 25 -6z m-115 -80 c2 -18 -2 -14 -15 15 -10 22 -16 44 -13
49 6 11 24 -29 28 -64z m1302 42 c2 -14 -2 -22 -12 -22 -17 0 -39 34 -29 44
14 13 38 0 41 -22z m-28 -32 c6 0 10 -7 10 -15 0 -25 -19 -17 -40 18 -11 17
-20 27 -20 21 0 -6 10 -23 21 -38 12 -15 19 -29 16 -32 -8 -8 -47 47 -47 67 0
27 24 29 38 3 7 -13 17 -24 22 -24z m-36 -69 c-10 -11 -44 40 -44 68 0 24 3
22 25 -18 14 -24 23 -47 19 -50z m425 -148 c78 -105 147 -193 154 -196 6 -2
92 40 190 93 97 54 177 95 177 90 0 -13 -19 -25 -150 -93 -69 -36 -148 -78
-177 -93 -28 -16 -53 -27 -56 -24 -2 3 -55 75 -117 160 -62 85 -125 171 -140
190 -26 34 -53 96 -33 75 6 -5 74 -96 152 -202z m-445 135 c-3 -5 -13 -3 -22
4 -13 11 -15 11 -10 -4 4 -9 1 -19 -6 -21 -11 -4 -12 1 -3 29 10 32 11 33 28
18 10 -9 16 -21 13 -26z m-1035 -157 c39 -11 119 -92 113 -113 -1 -5 2 -7 8
-3 6 4 23 -5 37 -19 14 -14 30 -26 34 -26 5 0 9 -13 9 -29 0 -17 5 -33 10 -36
6 -3 10 -15 10 -26 0 -19 -1 -19 -30 2 -16 12 -27 25 -25 29 3 4 -2 7 -9 6
-20 -2 -148 123 -140 136 4 6 2 8 -3 5 -14 -9 -37 19 -28 32 3 7 0 8 -9 5 -14
-6 -21 5 -17 29 0 4 -3 6 -8 5 -5 -2 -24 17 -42 42 l-32 44 41 -35 c23 -20 59
-41 81 -48z m41 25 c0 -6 5 -4 10 4 8 13 10 12 10 -2 0 -19 -11 -22 -48 -11
-15 3 -19 9 -12 13 17 10 40 8 40 -4z m65 -6 c3 -5 1 -10 -4 -10 -6 0 -11 5
-11 10 0 6 2 10 4 10 3 0 8 -4 11 -10z m-195 -20 c6 -11 8 -20 6 -20 -3 0 -10
9 -16 20 -6 11 -8 20 -6 20 3 0 10 -9 16 -20z m3836 -12 c61 -73 71 -160 29
-245 -32 -64 -267 -286 -334 -316 -64 -28 -158 -27 -216 4 -26 14 -143 122
-280 257 l-235 232 112 2 c62 2 142 3 178 3 36 0 67 3 70 7 7 10 183 33 245
32 28 0 53 4 56 8 6 9 240 45 306 47 35 1 45 -4 69 -31z m-3129 -169 c-21 -11
-46 -34 -56 -50 -10 -17 -21 -27 -24 -21 -14 21 66 93 103 92 8 -1 -2 -10 -23
-21z m-3 -45 c-25 -25 -48 -43 -50 -41 -10 10 21 59 45 72 49 27 50 15 5 -31z
m-84 5 c-7 -11 -14 -18 -17 -15 -8 8 5 36 17 36 7 0 7 -6 0 -21z m155 11 c3
-5 0 -10 -9 -10 -8 0 -26 -13 -39 -30 -30 -35 -37 -37 -37 -11 0 21 44 61 66
61 7 0 16 -4 19 -10z m19 -35 c3 -8 -4 -21 -17 -30 -42 -29 -64 -10 -30 27 20
22 39 23 47 3z m1126 -40 c-7 -8 -17 -15 -23 -15 -5 0 -2 9 8 20 21 23 35 19
15 -5z m-365 -57 c63 -28 41 -128 -28 -128 -66 0 -93 78 -41 119 31 24 35 25
69 9z"/>
<path d="M7453 11663 c-62 -26 -79 -45 -67 -77 9 -24 41 -20 112 14 51 24 62
33 62 54 0 21 -18 38 -38 35 -4 0 -35 -12 -69 -26z"/>
<path d="M6993 11500 c-112 -57 -212 -89 -320 -104 -93 -12 -111 -23 -94 -55
28 -51 231 -11 441 87 111 52 144 88 101 112 -25 13 -21 14 -128 -40z"/>
<path d="M8265 11502 c-22 -9 -46 -21 -53 -25 -17 -11 -15 -42 3 -57 15 -12
49 -3 115 30 22 11 25 42 4 57 -22 16 -19 16 -69 -5z"/>
<path d="M7321 11440 c-30 -17 -61 -30 -71 -30 -9 0 -25 -9 -35 -20 -17 -19
-17 -21 0 -40 23 -25 54 -20 138 22 61 30 77 50 60 77 -16 25 -33 23 -92 -9z"/>
<path d="M7829 11362 c-13 -11 -37 -25 -54 -33 -35 -17 -39 -45 -9 -65 18 -12
26 -11 65 9 50 27 71 66 49 91 -16 20 -22 20 -51 -2z"/>
<path d="M4440 9054 c-203 -43 -381 -211 -410 -387 -37 -231 157 -486 403
-528 178 -30 328 51 419 226 134 258 78 559 -122 660 -89 45 -177 54 -290 29z
m-11 -189 c90 -76 40 -215 -78 -215 -26 0 -56 7 -69 16 -49 34 -66 109 -37
164 32 62 129 81 184 35z"/>
<path d="M9585 9106 c-130 -41 -219 -134 -255 -264 -16 -61 -13 -215 5 -287
37 -145 131 -277 234 -329 213 -108 488 6 603 250 94 201 28 409 -172 543
-131 88 -300 124 -415 87z m352 -171 c38 -11 73 -62 73 -106 0 -80 -49 -129
-129 -129 -30 0 -49 7 -71 28 -74 66 -48 184 46 212 29 8 38 7 81 -5z"/>
<path d="M8360 4049 c-12 -8 -10 -9 8 -4 22 6 32 -10 11 -17 -6 -2 15 -27 46
-56 45 -41 60 -50 71 -42 21 18 -52 93 -83 85 -13 -3 -23 -1 -23 5 0 5 5 10
11 10 8 0 8 5 -1 15 -15 18 -20 18 -40 4z m100 -74 c19 -19 29 -35 24 -35 -6
0 -25 16 -44 35 -19 19 -29 35 -24 35 6 0 25 -16 44 -35z"/>
<path d="M8511 3926 c-15 -17 -7 -36 15 -36 8 0 13 -4 10 -9 -7 -11 91 -97
106 -93 6 2 8 -4 5 -11 -3 -9 4 -19 19 -26 13 -6 24 -16 24 -23 0 -9 3 -9 12
0 17 17 33 15 18 -3 -7 -9 -10 -18 -7 -22 4 -3 9 2 13 11 3 9 11 13 18 9 6 -4
5 1 -3 10 -9 12 -21 15 -35 11 -18 -6 -19 -5 -9 8 11 12 8 19 -14 39 l-26 24
18 -27 c9 -16 13 -28 9 -28 -5 0 -15 9 -22 20 -7 12 -17 18 -22 15 -6 -3 -10
-1 -10 4 0 6 5 11 12 11 6 0 -1 13 -16 29 -18 19 -36 28 -52 26 -19 -2 -22 1
-14 15 7 13 3 23 -14 39 -20 19 -25 20 -35 7z m40 -23 c12 -15 12 -16 -4 -10
-10 4 -23 7 -28 7 -5 0 -9 5 -9 10 0 16 26 12 41 -7z m74 -92 c-4 -3 -10 1
-15 9 -6 8 -10 11 -10 5 0 -5 -4 -3 -9 5 -16 25 0 32 20 9 11 -12 17 -25 14
-28z"/>
<path d="M8181 3872 c-8 -2 2 -12 25 -22 22 -10 34 -19 28 -19 -27 -2 -20 -31
14 -62 20 -19 31 -27 25 -19 -15 17 -17 30 -3 30 5 0 13 -12 16 -26 4 -15 14
-34 24 -44 13 -13 18 -14 29 -3 10 11 17 10 41 -9 16 -13 27 -28 25 -34 -5
-17 15 -33 33 -27 10 4 13 2 8 -5 -3 -6 -2 -13 4 -17 15 -9 12 21 -3 34 -8 6
-18 7 -22 3 -5 -4 -5 -2 -2 4 7 12 -113 124 -133 124 -6 0 -9 4 -6 8 5 8 -20
34 -69 73 -11 9 -26 14 -34 11z m63 -66 c-4 -11 0 -13 18 -10 20 5 21 4 5 -6
-14 -9 -22 -9 -33 1 -12 10 -12 14 -2 20 18 12 18 11 12 -5z m95 -73 c1 -1 0
-7 -4 -12 -7 -13 -35 10 -35 30 0 8 5 8 18 -2 9 -7 19 -14 21 -16z"/>
<path d="M8188 3843 c6 -2 10 -9 6 -14 -3 -5 -1 -9 5 -9 17 0 21 18 5 24 -9 3
-19 6 -22 5 -4 0 -1 -3 6 -6z"/>
<path d="M8349 3691 c8 -5 10 -14 6 -22 -6 -9 -4 -11 8 -6 11 4 14 2 11 -7 -3
-7 1 -16 9 -19 23 -8 15 25 -10 46 -11 9 -25 17 -30 17 -4 0 -2 -4 6 -9z"/>
<path d="M8410 3616 c0 -2 7 -9 15 -16 13 -11 14 -10 9 4 -5 14 -24 23 -24 12z"/>
<path d="M8450 3580 c0 -5 5 -10 11 -10 5 0 7 5 4 10 -3 6 -8 10 -11 10 -2 0
-4 -4 -4 -10z"/>
<path d="M8489 3583 c-1 -5 -1 -11 0 -15 0 -5 -4 -8 -11 -8 -7 0 12 -23 42
-51 145 -135 210 -190 203 -174 -4 13 -3 16 5 11 7 -4 12 -2 12 4 0 6 5 8 10
5 26 -16 5 13 -29 42 -34 28 -41 30 -51 17 -11 -13 -15 -13 -32 3 -16 15 -17
18 -3 25 8 5 15 12 15 16 0 4 -27 31 -60 61 -50 44 -63 51 -76 40 -21 -17 -28
-5 -9 15 15 14 15 16 1 16 -9 0 -17 -3 -17 -7z m40 -44 c-8 -5 -11 -9 -7 -9 3
0 14 -3 24 -7 13 -5 15 -3 9 8 -4 8 7 1 26 -16 19 -16 36 -31 39 -33 2 -2 -2
-8 -10 -13 -11 -8 -9 -9 10 -4 23 7 24 6 8 -10 -20 -21 -41 -11 -33 16 4 11 2
19 -4 19 -6 0 -11 -5 -11 -11 0 -6 -14 3 -32 20 -17 17 -36 31 -40 31 -5 0 -3
6 4 14 7 8 17 12 22 9 4 -3 2 -9 -5 -14z m183 -150 c23 -17 27 -24 16 -30 -20
-13 -25 -11 -32 17 -5 18 -12 24 -22 20 -9 -3 -12 -1 -9 4 9 14 13 13 47 -11z"/>
<path d="M8560 3511 c0 -5 5 -13 10 -16 6 -3 10 -2 10 4 0 5 -4 13 -10 16 -5
3 -10 2 -10 -4z"/>
<path d="M8657 3443 c-4 -3 -7 -11 -7 -17 0 -6 5 -5 12 2 6 6 9 14 7 17 -3 3
-9 2 -12 -2z"/>
<path d="M7655 4541 c-3 -5 -2 -12 3 -15 5 -3 9 1 9 9 0 17 -3 19 -12 6z"/>
<path d="M7258 4513 c7 -3 16 -2 19 1 4 3 -2 6 -13 5 -11 0 -14 -3 -6 -6z"/>
<path d="M7600 4365 c-7 -9 -8 -15 -2 -15 5 0 12 7 16 15 3 8 4 15 2 15 -2 0
-9 -7 -16 -15z"/>
<path d="M7575 4460 c10 -11 20 -20 22 -20 2 0 -1 9 -7 20 -6 11 -16 20 -22
20 -6 0 -3 -9 7 -20z"/>
<path d="M6816 4161 c-4 -5 -2 -12 3 -15 5 -4 12 -2 15 3 4 5 2 12 -3 15 -5 4
-12 2 -15 -3z"/>
<path d="M6825 4121 c-3 -5 -2 -12 3 -15 5 -3 9 1 9 9 0 17 -3 19 -12 6z"/>
<path d="M6566 4101 c-4 -5 -2 -12 3 -15 5 -4 12 -2 15 3 4 5 2 12 -3 15 -5 4
-12 2 -15 -3z"/>
<path d="M6440 3935 c-7 -8 -11 -15 -9 -16 2 0 15 -2 28 -3 21 -3 22 -1 8 9
-9 7 -14 15 -10 18 3 4 4 7 1 7 -3 0 -11 -7 -18 -15z"/>
<path d="M6626 3883 c-6 -14 -5 -15 5 -6 7 7 10 15 7 18 -3 3 -9 -2 -12 -12z"/>
<path d="M6594 3838 l-19 -23 23 19 c12 11 22 21 22 23 0 8 -8 2 -26 -19z"/>
<path d="M6376 3823 c-6 -14 -5 -15 5 -6 7 7 10 15 7 18 -3 3 -9 -2 -12 -12z"/>
<path d="M6375 3729 c-4 -6 -5 -12 -2 -15 2 -3 7 2 10 11 7 17 1 20 -8 4z"/>
<path d="M6698 3694 c-27 -13 -48 -27 -48 -29 0 -5 99 42 109 51 13 11 -20 0
-61 -22z"/>
<path d="M6564 3611 c-38 -26 -78 -59 -89 -72 -20 -23 -20 -24 0 -9 11 8 31
25 45 38 14 12 46 37 73 53 42 28 55 39 44 39 -2 0 -35 -22 -73 -49z"/>
<path d="M7050 2995 c-14 -8 -20 -14 -15 -14 6 0 21 6 35 14 14 8 21 14 15 14
-5 0 -21 -6 -35 -14z"/>
<path d="M6637 3498 c-31 -31 -31 -32 -2 -8 16 14 34 28 40 32 5 5 6 8 2 8 -4
0 -22 -15 -40 -32z"/>
<path d="M10491 3361 c-14 -8 -47 -18 -75 -21 -45 -4 -51 -8 -54 -29 -8 -51
67 -67 137 -31 52 26 69 70 34 89 -13 6 -25 4 -42 -8z"/>
<path d="M10160 3338 c-14 -6 -65 -13 -115 -17 -86 -6 -90 -7 -93 -30 -5 -35
22 -51 87 -51 62 0 154 22 177 41 8 7 14 24 12 38 -3 30 -28 37 -68 19z"/>
<path d="M10220 3096 c-6 -8 -10 -25 -8 -38 3 -21 10 -24 73 -31 39 -4 80 -5
92 -2 41 10 41 68 0 79 -44 12 -144 6 -157 -8z"/>
<path d="M6695 3353 c-62 -16 -120 -95 -132 -178 -4 -36 -1 -55 21 -100 72
-146 258 -140 327 10 31 67 19 155 -29 208 -38 42 -136 74 -187 60z m130 -36
c103 -58 122 -185 39 -276 -39 -44 -103 -67 -154 -56 -40 9 -99 60 -116 102
-33 77 -2 186 65 230 45 30 112 30 166 0z"/>
<path d="M6696 3173 c-4 -9 0 -23 9 -32 13 -14 17 -14 30 0 19 19 10 49 -15
49 -10 0 -21 -8 -24 -17z"/>
<path d="M6983 3253 c-6 -2 -19 -27 -28 -54 -19 -57 -8 -85 29 -75 14 4 26 -1
36 -15 l16 -20 27 21 c22 18 25 25 16 41 -7 15 -6 23 6 35 8 8 15 20 15 24 0
23 -87 54 -117 43z m82 -26 c23 -18 15 -29 -41 -61 -57 -32 -64 -32 -64 -3 0
28 8 38 45 59 37 21 37 21 60 5z m5 -89 c0 -6 -7 -5 -15 2 -8 7 -15 17 -15 22
0 6 7 5 15 -2 8 -7 15 -17 15 -22z m-23 -3 c8 -22 -6 -33 -17 -15 -13 20 -12
30 0 30 6 0 13 -7 17 -15z"/>
<path d="M7201 3471 c-16 -28 13 -51 36 -28 18 18 11 47 -11 47 -9 0 -20 -9
-25 -19z"/>
<path d="M4723 3243 c-7 -2 -13 -17 -13 -33 0 -24 6 -30 37 -41 44 -14 132
-17 186 -6 36 8 38 10 35 40 l-3 32 -100 0 c-55 0 -107 3 -115 7 -8 3 -21 4
-27 1z"/>
<path d="M4417 3233 c-16 -15 -6 -53 18 -69 32 -21 93 -28 128 -15 23 9 28 16
25 39 -3 25 -6 27 -53 28 -28 0 -60 6 -72 12 -25 14 -37 15 -46 5z"/>
<path d="M4632 3001 c-51 -9 -65 -21 -60 -52 3 -22 7 -24 63 -23 33 0 73 4 88
8 25 6 28 11 25 39 -3 29 -6 32 -38 33 -19 1 -54 -1 -78 -5z"/>
<path d="M8103 3468 c7 -20 -8 -25 -17 -5 -3 6 -5 3 -3 -7 1 -12 11 -20 25
-21 26 -2 29 17 5 36 -15 12 -16 12 -10 -3z"/>
<path d="M7970 3463 c0 -5 10 -18 23 -29 l22 -19 -20 25 c-11 14 -21 27 -22
29 -2 2 -3 0 -3 -6z"/>
<path d="M8021 3371 c-29 -41 -26 -52 4 -17 23 27 32 46 21 46 -3 0 -14 -13
-25 -29z"/>
<path d="M8074 3365 c-3 -8 -11 -12 -17 -8 -6 3 -7 1 -3 -6 6 -9 11 -9 22 0 7
6 21 9 29 5 22 -8 18 1 -5 14 -16 9 -22 8 -26 -5z"/>
<path d="M8138 3323 c7 -3 16 -2 19 1 4 3 -2 6 -13 5 -11 0 -14 -3 -6 -6z"/>
<path d="M8188 3323 c7 -3 16 -2 19 1 4 3 -2 6 -13 5 -11 0 -14 -3 -6 -6z"/>
<path d="M8052 3306 c1 -10 8 -17 13 -17 15 1 12 24 -3 29 -9 3 -13 -2 -10
-12z"/>
<path d="M8138 3303 c6 -2 18 -2 25 0 6 3 1 5 -13 5 -14 0 -19 -2 -12 -5z"/>
<path d="M7620 3015 c0 -5 10 -21 21 -35 13 -17 17 -18 10 -5 -17 33 -31 51
-31 40z"/>
<path d="M7661 2945 c1 -19 18 -51 18 -35 0 8 -4 22 -9 30 -5 8 -9 11 -9 5z"/>
<path d="M7681 2874 c0 -11 3 -14 6 -6 3 7 2 16 -1 19 -3 4 -6 -2 -5 -13z"/>
<path d="M7350 2763 c0 -4 5 -15 10 -23 8 -13 10 -13 10 2 0 9 -4 20 -10 23
-5 3 -10 3 -10 -2z"/>
<path d="M7175 2679 c-4 -6 -13 -8 -21 -5 -8 3 -24 -4 -35 -15 -16 -16 -18
-27 -13 -57 4 -20 7 -38 8 -38 0 -1 19 1 41 5 l40 6 1 58 c1 54 -6 71 -21 46z
m-30 -36 c-5 -10 -8 -26 -9 -35 -1 -25 -16 -10 -16 16 0 24 7 36 23 36 5 0 6
-8 2 -17z m35 -48 c-7 -8 -17 -15 -23 -15 -5 0 -2 9 8 20 21 23 35 19 15 -5z"/>
<path d="M7395 2680 c3 -5 8 -10 11 -10 2 0 4 5 4 10 0 6 -5 10 -11 10 -5 0
-7 -4 -4 -10z"/>
<path d="M7485 2520 c3 -5 8 -10 11 -10 2 0 4 5 4 10 0 6 -5 10 -11 10 -5 0
-7 -4 -4 -10z"/>
<path d="M8275 2815 c-60 -33 -108 -53 -120 -50 -11 3 -15 2 -9 -1 7 -3 10
-13 7 -23 -3 -12 12 -41 42 -79 29 -37 44 -65 39 -73 -4 -7 -3 -10 3 -6 14 9
47 -29 37 -44 -4 -7 -3 -10 3 -6 5 3 31 -23 58 -59 38 -53 45 -68 34 -75 -8
-5 -9 -9 -4 -9 6 1 51 23 100 51 50 27 118 64 153 82 34 17 61 35 60 38 -2 4
-57 64 -122 134 -66 70 -128 138 -138 151 -11 13 -25 24 -31 23 -7 0 -57 -25
-112 -54z"/>
<path d="M8266 2852 c-3 -5 1 -9 9 -9 8 0 12 4 9 9 -3 4 -7 8 -9 8 -2 0 -6 -4
-9 -8z"/>
<path d="M8145 2690 c10 -11 20 -20 23 -20 3 0 -3 9 -13 20 -10 11 -20 20 -23
20 -3 0 3 -9 13 -20z"/>
<path d="M8531 2461 c-10 -7 -7 -9 12 -8 14 1 23 5 20 10 -6 9 -15 9 -32 -2z"/>
<path d="M8306 2437 c3 -10 9 -15 12 -12 3 3 0 11 -7 18 -10 9 -11 8 -5 -6z"/>
<path d="M8326 2412 c-3 -5 1 -9 9 -9 8 0 12 4 9 9 -3 4 -7 8 -9 8 -2 0 -6 -4
-9 -8z"/>
<path d="M8410 2394 c-25 -15 -25 -15 -1 -8 18 5 22 3 16 -7 -5 -8 -4 -10 0
-6 7 6 17 38 12 37 -1 -1 -13 -7 -27 -16z"/>
<path d="M6310 3114 c0 -29 16 -64 30 -64 13 0 17 32 7 63 -11 35 -37 36 -37
1z m30 -24 c0 -13 -1 -13 -10 0 -5 8 -10 22 -10 30 0 13 1 13 10 0 5 -8 10
-22 10 -30z"/>
<path d="M8500 3078 c0 -6 3 -8 7 -5 3 4 13 1 22 -6 14 -11 14 -10 2 6 -15 20
-31 22 -31 5z"/>
<path d="M7312 2998 c-15 -18 1 -41 24 -36 23 4 26 41 3 46 -9 1 -21 -3 -27
-10z m24 -25 c-10 -10 -19 5 -10 18 6 11 8 11 12 0 2 -7 1 -15 -2 -18z"/>
<path d="M7220 2924 c-11 -12 -10 -18 3 -32 16 -15 18 -15 34 0 13 14 14 20 3
32 -7 9 -16 16 -20 16 -4 0 -13 -7 -20 -16z m30 -14 c0 -5 -4 -10 -10 -10 -5
0 -10 5 -10 10 0 6 5 10 10 10 6 0 10 -4 10 -10z"/>
<path d="M7076 2844 c-8 -21 1 -34 24 -34 19 0 30 17 23 38 -7 17 -40 15 -47
-4z m30 -21 c-10 -10 -19 5 -10 18 6 11 8 11 12 0 2 -7 1 -15 -2 -18z"/>
<path d="M7415 2320 c3 -5 8 -10 11 -10 2 0 4 5 4 10 0 6 -5 10 -11 10 -5 0
-7 -4 -4 -10z"/>
<path d="M8565 2891 c-6 -11 13 -26 22 -17 4 3 0 6 -8 6 -11 0 -11 2 1 10 9 6
10 10 3 10 -6 0 -14 -4 -18 -9z"/>
<path d="M8570 2820 c0 -5 7 -10 15 -10 8 0 15 5 15 10 0 6 -7 10 -15 10 -8 0
-15 -4 -15 -10z"/>
<path d="M6280 2796 c0 -8 4 -17 9 -20 5 -4 7 3 4 14 -6 23 -13 26 -13 6z"/>
<path d="M6423 2679 c-8 -8 -8 -18 -1 -34 9 -19 6 -29 -17 -59 l-28 -37 19
-35 c23 -43 66 -68 101 -59 19 4 26 1 30 -14 3 -12 10 -18 15 -15 5 3 7 13 4
21 -4 9 -1 12 7 7 9 -5 9 -4 1 5 -9 10 -8 19 2 39 8 15 14 37 14 50 0 32 -52
82 -84 82 -18 0 -24 4 -20 14 3 9 -1 13 -13 13 -11 -1 -18 4 -17 16 2 20 1 20
-13 6z m107 -89 c39 -39 12 -120 -39 -120 -33 0 -51 11 -66 41 -36 68 51 133
105 79z"/>
<path d="M6513 2579 c9 -5 17 -18 18 -27 0 -11 2 -12 6 -4 6 15 -14 42 -31 42
-6 0 -3 -5 7 -11z"/>
<path d="M6432 2540 c0 -14 2 -19 5 -12 2 6 2 18 0 25 -3 6 -5 1 -5 -13z"/>
<path d="M6396 2603 c-6 -15 -8 -15 -16 -3 -6 8 -10 11 -10 5 0 -27 16 -32 33
-9 10 13 14 24 9 24 -6 0 -13 -8 -16 -17z"/>
<path d="M6350 2591 c0 -6 4 -13 10 -16 6 -3 7 1 4 9 -7 18 -14 21 -14 7z"/>
<path d="M6572 2448 c-7 -7 -12 -17 -12 -22 0 -6 5 -3 11 8 9 15 13 16 20 5 6
-9 9 -10 9 -2 0 18 -15 24 -28 11z"/>
<path d="M6484 2428 c-10 -13 -12 -17 -4 -11 8 6 18 12 23 12 8 1 11 11 4 17
-2 2 -12 -6 -23 -18z"/>
<path d="M6430 2436 c0 -2 7 -7 16 -10 8 -3 12 -2 9 4 -6 10 -25 14 -25 6z"/>
<path d="M6625 2401 c-4 -7 -1 -10 7 -9 7 2 12 -5 12 -14 -1 -10 2 -15 7 -12
5 3 9 1 9 -4 0 -16 -13 -22 -27 -11 -7 6 -13 8 -13 4 0 -4 -7 -2 -15 5 -21 17
-19 6 6 -32 14 -23 19 -26 16 -12 -3 17 0 20 18 18 19 -2 23 2 20 23 -3 31
-30 60 -40 44z"/>
<path d="M8626 2383 c-6 -14 -5 -15 5 -6 7 7 10 15 7 18 -3 3 -9 -2 -12 -12z"/>
<path d="M6686 2368 c3 -5 10 -6 15 -3 13 9 11 12 -6 12 -8 0 -12 -4 -9 -9z"/>
<path d="M6695 2339 c-3 -5 1 -6 10 -3 11 5 14 2 9 -12 -7 -20 -6 -19 13 6 10
13 8 16 -7 17 -11 1 -22 -2 -25 -8z"/>
<path d="M6564 2311 c0 -9 -5 -15 -12 -13 -8 1 -11 -2 -6 -9 5 -9 12 -6 24 9
10 12 19 20 21 19 2 -1 3 0 1 2 -8 13 -29 7 -28 -8z"/>
<path d="M6754 2322 c3 -5 0 -13 -6 -15 -9 -4 -10 -6 -1 -6 17 -1 25 16 12 25
-7 4 -9 3 -5 -4z"/>
<path d="M6770 2296 c0 -2 7 -7 16 -10 8 -3 12 -2 9 4 -6 10 -25 14 -25 6z"/>
<path d="M8543 2288 c-22 -29 -24 -41 -3 -20 12 13 20 25 17 28 -2 2 -9 -1
-14 -8z"/>
<path d="M6705 2280 c-3 -5 -5 -10 -3 -11 29 -7 36 -5 31 7 -6 16 -19 18 -28
4z"/>
<path d="M8303 2268 c-2 -16 1 -18 10 -9 7 7 8 14 1 21 -6 6 -10 2 -11 -12z"/>
<path d="M8475 2279 c-4 -6 -14 -8 -22 -4 -13 4 -13 3 -4 -9 9 -11 8 -15 -3
-19 -8 -3 -17 -1 -20 6 -3 7 -3 1 1 -13 5 -23 5 -24 -13 -10 -18 13 -18 13 -1
-5 17 -19 18 -19 47 15 28 32 37 50 26 50 -3 0 -8 -5 -11 -11z"/>
<path d="M6576 2262 c-3 -5 4 -18 17 -28 21 -19 21 -19 7 0 -8 11 -13 21 -12
23 2 3 1 7 -1 9 -3 3 -8 1 -11 -4z"/>
<path d="M8257 2253 c-10 -9 -9 -23 1 -23 5 0 9 7 9 15 0 17 -1 18 -10 8z"/>
<path d="M8486 2251 c-3 -5 2 -15 12 -22 15 -12 16 -12 5 2 -7 9 -10 19 -6 22
3 4 4 7 0 7 -3 0 -8 -4 -11 -9z"/>
<path d="M8359 2248 c0 -2 -2 -13 -3 -25 -2 -15 2 -19 12 -15 9 3 13 1 9 -4
-12 -21 7 -33 28 -18 20 15 20 15 0 27 -11 6 -24 12 -30 12 -5 1 -9 6 -7 13 2
10 -6 18 -9 10z m36 -37 c3 -5 2 -12 -3 -15 -5 -3 -9 1 -9 9 0 17 3 19 12 6z"/>
<path d="M8216 2214 c-11 -8 -16 -14 -10 -14 13 0 39 18 34 24 -3 2 -14 -2
-24 -10z"/>
<path d="M8430 2196 c0 -2 8 -10 18 -17 15 -13 16 -12 3 4 -13 16 -21 21 -21
13z"/>
<path d="M6824 2178 c-4 -7 -4 -10 1 -6 4 4 15 2 24 -5 14 -11 14 -10 2 6 -16
20 -18 21 -27 5z"/>
<path d="M6886 2169 c6 -11 -27 -20 -47 -14 -15 5 -18 2 -16 -14 2 -11 7 -24
12 -28 4 -5 5 -1 0 7 -5 8 -4 12 0 7 11 -9 16 -37 7 -36 -29 4 -32 -2 -17 -31
9 -18 20 -28 27 -24 8 5 9 1 4 -12 -4 -10 -4 -15 0 -12 4 4 16 1 28 -7 11 -8
35 -15 53 -15 17 0 39 -7 48 -16 11 -11 20 -13 26 -7 7 7 2 13 -16 17 -23 6
-24 8 -11 22 12 11 20 12 35 4 29 -15 50 -13 29 4 -14 10 -15 15 -5 26 10 10
9 12 -5 7 -10 -4 -18 -2 -18 3 0 6 6 10 13 10 9 0 9 2 -1 8 -7 5 -14 22 -15
39 -1 17 -4 31 -7 30 -3 -1 -17 7 -32 17 -26 17 -101 29 -92 15z m88 -40 c50
-40 24 -121 -39 -121 -36 0 -65 29 -65 66 0 39 9 52 40 65 34 13 34 14 64 -10z"/>
<path d="M6884 2095 c-8 -33 0 -51 28 -66 l23 -12 -24 26 c-17 19 -22 33 -17
51 3 15 4 26 1 26 -2 0 -7 -11 -11 -25z"/>
<path d="M6962 2100 c7 -10 14 -18 15 -16 6 6 -9 36 -18 36 -5 0 -4 -9 3 -20z"/>
<path d="M8410 2156 c7 -7 13 -7 20 0 6 6 3 10 -10 10 -13 0 -16 -4 -10 -10z"/>
<path d="M8313 2146 c14 -14 21 -16 30 -7 8 8 8 11 0 11 -6 0 -20 3 -30 7 -17
7 -17 6 0 -11z"/>
<path d="M8295 2128 c4 -11 2 -18 -4 -18 -6 0 -11 -5 -11 -12 0 -8 6 -6 17 5
14 14 15 19 4 29 -10 11 -11 10 -6 -4z"/>
<path d="M8302 2081 c-11 -7 -10 -9 3 -14 11 -5 14 -3 9 5 -5 8 -2 9 10 5 10
-4 15 -3 11 3 -7 12 -16 12 -33 1z"/>
<path d="M6780 2076 c0 -2 8 -10 18 -17 15 -13 16 -12 3 4 -13 16 -21 21 -21
13z"/>
<path d="M7925 2060 c3 -6 1 -10 -6 -10 -7 0 -10 -3 -6 -6 3 -3 13 -2 22 4 16
8 16 9 1 15 -10 4 -15 3 -11 -3z"/>
<path d="M7060 2049 c0 -5 5 -7 10 -4 6 3 10 8 10 11 0 2 -4 4 -10 4 -5 0 -10
-5 -10 -11z"/>
<path d="M7160 2040 c-8 -5 -10 -10 -5 -10 6 0 17 5 25 10 8 5 11 10 5 10 -5
0 -17 -5 -25 -10z"/>
<path d="M7878 2043 c7 -3 16 -2 19 1 4 3 -2 6 -13 5 -11 0 -14 -3 -6 -6z"/>
<path d="M7268 2023 c7 -3 16 -2 19 1 4 3 -2 6 -13 5 -11 0 -14 -3 -6 -6z"/>
<path d="M7808 2023 c6 -2 18 -2 25 0 6 3 1 5 -13 5 -14 0 -19 -2 -12 -5z"/>
<path d="M7473 1987 c-3 -6 -1 -7 5 -3 16 9 15 5 -4 -32 -15 -32 -23 -36 -56
-33 -28 3 -21 -9 11 -20 22 -8 29 -16 26 -31 -3 -14 0 -18 10 -14 9 3 12 0 9
-8 -3 -7 1 -13 8 -14 7 -1 40 -6 73 -11 33 -6 61 -8 64 -5 2 2 -4 4 -13 4 -15
0 -15 4 6 29 18 23 31 30 60 30 51 1 56 17 9 25 -30 5 -43 13 -54 35 -11 21
-12 32 -4 40 14 14 17 13 -71 16 -40 1 -75 -2 -79 -8z m147 -3 c0 -8 -19 -13
-24 -6 -3 5 1 9 9 9 8 0 15 -2 15 -3z m-25 -29 c38 -37 32 -86 -14 -109 -57
-30 -115 26 -92 87 19 50 69 60 106 22z"/>
<path d="M7506 1923 c-6 -14 -5 -15 5 -6 7 7 10 15 7 18 -3 3 -9 -2 -12 -12z"/>
<path d="M7510 1885 c7 -8 17 -15 22 -15 5 0 3 7 -6 15 -8 8 -18 15 -22 15 -3
0 -1 -7 6 -15z"/>
<path d="M8019 1998 c-5 -18 -6 -38 -1 -34 7 8 12 36 6 36 -2 0 -4 -1 -5 -2z"/>
<path d="M7000 1940 c-9 -6 -10 -10 -3 -10 6 0 15 5 18 10 8 12 4 12 -15 0z"/>
<path d="M7960 1916 c0 -15 40 -25 62 -16 l23 11 -24 -5 c-13 -3 -33 -1 -43 5
-10 5 -18 7 -18 5z"/>
<path d="M7178 1903 c7 -3 16 -2 19 1 4 3 -2 6 -13 5 -11 0 -14 -3 -6 -6z"/>
<path d="M7835 1890 c-3 -6 5 -10 19 -10 14 0 28 5 31 10 3 6 -5 10 -19 10
-14 0 -28 -4 -31 -10z"/>
<path d="M6771 2744 c0 -11 3 -14 6 -6 3 7 2 16 -1 19 -3 4 -6 -2 -5 -13z"/>
<path d="M10060 2420 c6 -11 15 -18 21 -15 5 4 3 12 -5 21 -21 20 -28 17 -16
-6z"/>
<path d="M10100 2414 c-11 -28 0 -57 31 -85 10 -8 21 -28 25 -45 l7 -29 13 30
12 30 0 -38 c0 -21 3 -41 6 -45 6 -5 4 48 -4 103 0 6 -7 -3 -15 -20 l-15 -30
6 33 c6 34 -29 107 -47 97 -5 -4 -6 1 -3 9 3 9 3 16 0 16 -4 0 -11 -12 -16
-26z m30 -30 c0 -7 5 -14 12 -16 6 -2 13 -15 15 -27 3 -20 1 -22 -12 -11 -8 6
-13 16 -12 20 1 4 -2 8 -7 8 -9 0 -26 22 -26 33 0 3 7 6 15 6 8 0 15 -6 15
-13z"/>
<path d="M9730 2387 c105 -82 139 -105 134 -92 -7 18 7 20 24 3 9 -9 12 -9 12
0 0 7 -10 17 -22 22 -30 12 -86 70 -68 70 7 0 11 2 8 5 -3 3 -18 1 -33 -5 -20
-7 -31 -8 -39 0 -5 5 -15 10 -20 10 -6 0 -4 -6 4 -13z m94 -42 c21 -19 35 -35
30 -35 -5 0 -21 11 -36 25 -15 14 -32 25 -38 25 -5 0 -10 5 -10 10 0 18 15 11
54 -25z"/>
<path d="M9866 2346 c3 -9 13 -16 22 -16 8 0 13 1 11 3 -2 1 -12 9 -22 16 -15
12 -17 12 -11 -3z"/>
<path d="M9919 2314 c5 -3 7 -14 4 -24 -3 -11 -1 -20 4 -20 14 0 9 43 -6 46
-6 1 -7 0 -2 -2z"/>
<path d="M9946 2268 c-17 -19 -20 -20 -31 -5 -7 10 -18 17 -26 17 -8 0 -4 -8
10 -19 14 -10 31 -16 40 -13 8 3 12 1 8 -5 -11 -18 16 -33 31 -17 10 11 10 14
0 14 -8 0 -5 5 5 11 14 8 16 14 6 25 -15 18 -20 17 -43 -8z m34 -8 c-20 -13
-33 -13 -25 0 3 6 14 10 23 10 15 0 15 -2 2 -10z"/>
<path d="M10212 2270 c2 -35 -11 -70 -25 -67 -7 1 -11 -3 -10 -9 3 -14 -90 -6
-95 7 -6 16 -27 9 -41 -13 -10 -18 -11 -20 0 -10 14 13 43 17 36 5 -3 -5 16
-7 41 -5 35 2 43 0 32 -7 -13 -9 -13 -11 2 -11 18 0 41 19 63 54 11 16 12 30
5 51 -8 27 -9 27 -8 5z"/>
<path d="M10004 2248 c-5 -7 -3 -8 6 -3 7 4 16 2 21 -6 4 -7 11 -10 16 -6 4 5
1 12 -7 17 -20 13 -27 12 -36 -2z"/>
<path d="M10164 2235 c-4 -8 -14 -15 -23 -15 -13 -1 -13 -2 3 -11 19 -12 36 1
36 29 0 17 -9 15 -16 -3z"/>
<path d="M10010 2220 c0 -5 7 -10 16 -10 8 0 12 5 9 10 -3 6 -10 10 -16 10 -5
0 -9 -4 -9 -10z"/>
<path d="M10085 2216 c17 -8 32 -12 34 -10 7 7 -3 12 -34 18 l-30 6 30 -14z"/>
<path d="M9990 2200 c8 -5 20 -10 25 -10 6 0 3 5 -5 10 -8 5 -19 10 -25 10 -5
0 -3 -5 5 -10z"/>
<path d="M10095 2160 c3 -5 14 -10 23 -10 15 0 15 2 2 10 -20 13 -33 13 -25 0z"/>
<path d="M8110 2079 c0 -17 26 -57 33 -49 2 3 -4 19 -14 35 -11 17 -19 23 -19
14z"/>
</g>
</svg>
